<svg id="Layer_1"
          data-name="Layer 1"
          xmlns="http://www.w3.org/2000/svg"
          viewBox="0 0 400 400">
  <defs>
    <style>
      .cls-1 {
        fill: #2f2f2f;
      }

      .cls-2 {
        fill: #ebebeb;
      }

      .cls-3 {
        fill: #9c9c9c;
      }
    </style>
    </defs>

            <path
              class="cls-1"
              d="M194.92,215.08v94.86l-.33.19-82.21-47.46v-.32l-.27.16.27.16v94.94l-.27.16L29.84,310.26V163.93a25.5,25.5,0,0,1,38.25-22.09l44,25.41.27.16,82.21,47.48Z"
            />
            <path
              class="cls-2"
              d="M326.8,86.6a25.5,25.5,0,0,1,0,44.17l-43.85,25.32-.39.22-82.16,47.45-.33.19-82.21-47.48v-.33l82.21-47.45.33.19v-.38l-.33.19L117.85,61.21v-.3l82.21-47.48.33.19,82.16,47.43.39.22Z"
            />
            <path
              class="cls-3"
              d="M371,215.14v94.74l-.41.25h0l-82.1,47.42-.39.22-43.9,25.35A25.51,25.51,0,0,1,205.86,361V214.7L288,167.25l.39.22v94.82l-.39.22.39.22v-.44l82.1-47.4Z"
            />
       
</svg>
